<svg width="102" height="24" viewBox="0 0 102 24" fill="none" xmlns="http://www.w3.org/2000/svg">
<path d="M23.341 12C23.341 18.627 18.1155 24 11.6705 24C5.22541 24 0 18.627 0 12C0 5.37295 5.22541 0 11.6705 0C18.1169 0 23.341 5.37295 23.341 12Z" fill="#2081E2"/>
<path d="M5.75773 12.4033L5.80808 12.3219L8.84404 7.43841C8.88841 7.36691 8.99272 7.3743 9.02628 7.45197C9.53348 8.62074 9.97113 10.0743 9.7661 10.9793C9.67857 11.3516 9.43877 11.8558 9.16897 12.3219C9.13421 12.3897 9.09584 12.4563 9.05506 12.5204C9.03588 12.55 9.0035 12.5672 8.96873 12.5672H5.84645C5.76252 12.5672 5.71336 12.4735 5.75773 12.4033Z" fill="white"/>
<path d="M19.29 13.3106V14.0836C19.29 14.128 19.2636 14.1675 19.2252 14.1847C18.9902 14.2883 18.1857 14.668 17.8512 15.1464C16.9974 16.3682 16.3452 18.1152 14.8871 18.1152H8.80444C6.6486 18.1152 4.9016 16.3127 4.9016 14.0886V14.0171C4.9016 13.9579 4.94835 13.9098 5.00591 13.9098H8.39679C8.46392 13.9098 8.51307 13.9739 8.5071 14.0417C8.4831 14.2686 8.52388 14.5004 8.62819 14.7112C8.82962 15.1316 9.24689 15.3942 9.69772 15.3942H11.3764V14.0467H9.71691C9.63178 14.0467 9.58144 13.9455 9.63059 13.8741C9.64856 13.8457 9.66896 13.8161 9.69053 13.7828C9.84762 13.5535 10.0718 13.1972 10.2949 12.7916C10.4471 12.5179 10.5946 12.2257 10.7133 11.9323C10.7373 11.8792 10.7565 11.825 10.7757 11.772C10.808 11.6783 10.8416 11.5907 10.8656 11.5032C10.8896 11.4292 10.9087 11.3516 10.9279 11.2788C10.9843 11.0298 11.0083 10.7659 11.0083 10.4922C11.0083 10.385 11.0035 10.2728 10.9939 10.1655C10.9891 10.0484 10.9747 9.93126 10.9603 9.81414C10.9507 9.71058 10.9327 9.60824 10.9136 9.50099C10.8896 9.34441 10.856 9.18908 10.8176 9.03248L10.8044 8.97332C10.7757 8.86604 10.7517 8.76373 10.7181 8.65648C10.6234 8.31988 10.5143 7.99194 10.3992 7.68496C10.3572 7.56289 10.3092 7.44577 10.2613 7.32865C10.1905 7.15235 10.1186 6.99208 10.0526 6.84042C10.0191 6.77137 9.9903 6.70849 9.96152 6.64439C9.92915 6.57164 9.89558 6.4989 9.86199 6.42988C9.83802 6.37686 9.81043 6.32754 9.79125 6.27822L9.58622 5.88863C9.55744 5.83561 9.60541 5.77273 9.66175 5.78876L10.9447 6.14629H10.9483C10.9507 6.14629 10.9519 6.14754 10.9531 6.14754L11.1222 6.19561L11.308 6.24988L11.3764 6.26958V5.48548C11.3764 5.10697 11.6713 4.79999 12.0359 4.79999C12.2181 4.79999 12.3836 4.87643 12.5023 5.00094C12.621 5.12548 12.6953 5.29561 12.6953 5.48548V6.64933L12.832 6.68876C12.8428 6.69248 12.8536 6.6974 12.8632 6.7048C12.8968 6.73069 12.9447 6.7689 13.0059 6.81577C13.0538 6.8552 13.1054 6.9033 13.1677 6.95262C13.2912 7.05493 13.4387 7.18686 13.6006 7.33852C13.6437 7.37672 13.6857 7.41618 13.7241 7.45564C13.9327 7.65536 14.1665 7.8896 14.3896 8.14852C14.4519 8.22126 14.5131 8.29523 14.5754 8.37289C14.6377 8.4518 14.7037 8.52947 14.7612 8.60716C14.8368 8.71072 14.9183 8.81797 14.9891 8.93017C15.0226 8.98319 15.061 9.03743 15.0934 9.09044C15.1845 9.23221 15.2648 9.37895 15.3416 9.52566C15.374 9.59346 15.4075 9.66743 15.4363 9.74017C15.5214 9.9362 15.5886 10.1359 15.6317 10.3357C15.6449 10.3788 15.6545 10.4257 15.6593 10.4676V10.4775C15.6737 10.5366 15.6785 10.5995 15.6833 10.6636C15.7025 10.8683 15.6929 11.0729 15.6497 11.2788C15.6317 11.3664 15.6078 11.4489 15.579 11.5365C15.5502 11.6203 15.5214 11.7079 15.4843 11.7905C15.4123 11.9618 15.3272 12.1332 15.2265 12.2935C15.1941 12.3527 15.1557 12.4155 15.1174 12.4747C15.0754 12.5376 15.0322 12.5968 14.9939 12.6547C14.9411 12.7287 14.8848 12.8064 14.8272 12.8754C14.7756 12.9482 14.7229 13.0209 14.6653 13.085C14.585 13.1824 14.5082 13.2749 14.4279 13.3636C14.38 13.4216 14.3284 13.4808 14.2756 13.5338C14.2241 13.5929 14.1713 13.646 14.1234 13.6953C14.043 13.7779 13.9759 13.842 13.9195 13.895L13.7876 14.0195C13.7685 14.0368 13.7433 14.0467 13.7169 14.0467H12.6953V15.3942H13.9807C14.2684 15.3942 14.5418 15.2894 14.7625 15.0971C14.838 15.0293 15.1677 14.7358 15.5574 14.2932C15.5706 14.2784 15.5874 14.2673 15.6066 14.2624L19.1569 13.2071C19.2229 13.1873 19.29 13.2391 19.29 13.3106Z" fill="white"/>
<path d="M34.7134 17.7592C33.6584 17.7592 32.6886 17.5161 31.8042 17.0299C30.9303 16.5437 30.2321 15.8672 29.71 15.0005C29.1986 14.1233 28.9428 13.1403 28.9428 12.0517C28.9428 10.963 29.1986 9.98531 29.71 9.11862C30.2321 8.25193 30.9303 7.57547 31.8042 7.08927C32.6886 6.60308 33.6584 6.35999 34.7134 6.35999C35.7684 6.35999 36.7328 6.60308 37.6067 7.08927C38.4913 7.57547 39.1839 8.25193 39.6848 9.11862C40.1964 9.98531 40.452 10.963 40.452 12.0517C40.452 13.1403 40.1964 14.1233 39.6848 15.0005C39.1734 15.8672 38.4806 16.5437 37.6067 17.0299C36.7328 17.5161 35.7684 17.7592 34.7134 17.7592ZM34.7134 15.2859C35.6085 15.2859 36.3225 14.99 36.8554 14.3981C37.399 13.8062 37.6707 13.024 37.6707 12.0517C37.6707 11.0687 37.399 10.2866 36.8554 9.70522C36.3225 9.11334 35.6085 8.81739 34.7134 8.81739C33.8075 8.81739 33.083 9.10806 32.5394 9.68936C32.0065 10.2707 31.7402 11.0581 31.7402 12.0517C31.7402 13.0346 32.0065 13.822 32.5394 14.4139C33.083 14.9953 33.8075 15.2859 34.7134 15.2859Z" fill="#04111D"/>
<path d="M44.7063 10.054C44.9727 9.64181 45.3403 9.30886 45.8092 9.0552C46.2781 8.80152 46.8269 8.67468 47.4557 8.67468C48.1909 8.67468 48.8571 8.85965 49.4539 9.22959C50.0505 9.59952 50.5194 10.128 50.8604 10.815C51.2122 11.502 51.3879 12.3 51.3879 13.209C51.3879 14.118 51.2122 14.9213 50.8604 15.6188C50.5194 16.3059 50.0505 16.8396 49.4539 17.2201C48.8571 17.5901 48.1909 17.775 47.4557 17.775C46.8376 17.775 46.2889 17.6482 45.8092 17.3945C45.3403 17.1409 44.9727 16.8132 44.7063 16.4115V20.28H41.9729V8.80152H44.7063V10.054ZM48.6066 13.209C48.6066 12.5326 48.4148 12.0041 48.031 11.6236C47.658 11.2325 47.1945 11.037 46.6404 11.037C46.097 11.037 45.6334 11.2325 45.2497 11.6236C44.8767 12.0146 44.6902 12.5484 44.6902 13.2248C44.6902 13.9013 44.8767 14.4351 45.2497 14.8261C45.6334 15.2172 46.097 15.4127 46.6404 15.4127C47.184 15.4127 47.6475 15.2172 48.031 14.8261C48.4148 14.4245 48.6066 13.8854 48.6066 13.209Z" fill="#04111D"/>
<path d="M61.2301 13.0822C61.2301 13.3358 61.2142 13.6001 61.1823 13.8749H54.996C55.0387 14.4245 55.2144 14.8473 55.5235 15.1432C55.8433 15.4286 56.2321 15.5713 56.6905 15.5713C57.3726 15.5713 57.8466 15.2859 58.1132 14.7151H61.0224C60.8732 15.2965 60.6015 15.8197 60.2071 16.2847C59.8236 16.7498 59.3386 17.1144 58.7525 17.3787C58.1664 17.6429 57.511 17.775 56.7865 17.775C55.9126 17.775 55.1346 17.5901 54.4526 17.2201C53.7706 16.8502 53.2377 16.3217 52.854 15.6347C52.4705 14.9477 52.2786 14.1444 52.2786 13.2248C52.2786 12.3053 52.4651 11.502 52.8381 10.815C53.2216 10.128 53.7545 9.59952 54.4365 9.22959C55.1185 8.85965 55.9018 8.67468 56.7865 8.67468C57.6496 8.67468 58.4168 8.85437 59.0881 9.21375C59.7596 9.5731 60.2818 10.0857 60.6548 10.7516C61.0385 11.4175 61.2301 12.1943 61.2301 13.0822ZM58.4329 12.3687C58.4329 11.9037 58.273 11.5337 57.9533 11.2589C57.6335 10.9841 57.2339 10.8467 56.7545 10.8467C56.2961 10.8467 55.9072 10.9789 55.5874 11.2431C55.2784 11.5073 55.0865 11.8825 55.0121 12.3687H58.4329Z" fill="#04111D"/>
<path d="M68.1073 8.70642C69.1516 8.70642 69.9827 9.04463 70.6008 9.72109C71.2296 10.3869 71.544 11.3065 71.544 12.4797V17.6482H68.8264V12.8444C68.8264 12.2525 68.6719 11.7927 68.3629 11.4651C68.0538 11.1374 67.6384 10.9736 67.1162 10.9736C66.5939 10.9736 66.1784 11.1374 65.8694 11.4651C65.5603 11.7927 65.4058 12.2525 65.4058 12.8444V17.6482H62.6723V8.80153H65.4058V9.97475C65.6829 9.58367 66.0558 9.27716 66.5248 9.05521C66.9935 8.82268 67.521 8.70642 68.1073 8.70642Z" fill="#04111D"/>
<path d="M77.5037 17.7592C76.6832 17.7592 75.9478 17.627 75.2977 17.3628C74.6477 17.0986 74.1255 16.7075 73.7313 16.1896C73.3476 15.6717 73.145 15.0481 73.1237 14.3188H76.0329C76.0757 14.731 76.2194 15.0481 76.4648 15.2701C76.7098 15.4814 77.0294 15.5871 77.4238 15.5871C77.8288 15.5871 78.1483 15.4973 78.3829 15.3176C78.6173 15.1274 78.7347 14.8684 78.7347 14.5408C78.7347 14.2659 78.6387 14.0387 78.4469 13.859C78.2657 13.6793 78.0365 13.5314 77.7595 13.4151C77.4929 13.2988 77.1094 13.1667 76.6085 13.0188C75.8838 12.7968 75.2923 12.5748 74.8342 12.3529C74.376 12.1309 73.9817 11.8033 73.6512 11.3699C73.321 10.9366 73.1557 10.3711 73.1557 9.67352C73.1557 8.63771 73.5341 7.82915 74.2908 7.24782C75.0473 6.65593 76.033 6.35999 77.2478 6.35999C78.4842 6.35999 79.4804 6.65593 80.2371 7.24782C80.9938 7.82915 81.3988 8.64298 81.452 9.68936H78.4947C78.4735 9.33001 78.3402 9.0499 78.0951 8.8491C77.85 8.6377 77.5356 8.53201 77.1519 8.53201C76.8216 8.53201 76.5553 8.62184 76.3527 8.80153C76.1504 8.97063 76.0491 9.21903 76.0491 9.54668C76.0491 9.90603 76.2194 10.1861 76.5607 10.3869C76.9017 10.5878 77.4343 10.8044 78.1591 11.037C78.8838 11.2801 79.4699 11.5126 79.9174 11.7346C80.3758 11.9565 80.77 12.2789 81.1003 12.7017C81.4308 13.1245 81.5958 13.6688 81.5958 14.3347C81.5958 14.9688 81.4308 15.5449 81.1003 16.0628C80.7807 16.5807 80.3118 16.9929 79.6937 17.2994C79.0757 17.6059 78.3456 17.7592 77.5037 17.7592Z" fill="#04111D"/>
<path d="M91.6863 13.0822C91.6863 13.3358 91.6702 13.6001 91.6382 13.8749H85.452C85.4947 14.4245 85.6704 14.8473 85.9795 15.1432C86.2992 15.4286 86.6883 15.5713 87.1465 15.5713C87.8285 15.5713 88.3028 15.2859 88.5691 14.7151H91.4784C91.3292 15.2965 91.0575 15.8197 90.6633 16.2847C90.2796 16.7498 89.7948 17.1144 89.2084 17.3787C88.6224 17.6429 87.9669 17.775 87.2424 17.775C86.3686 17.775 85.5906 17.5901 84.9086 17.2201C84.2266 16.8502 83.6937 16.3217 83.31 15.6347C82.9265 14.9477 82.7346 14.1444 82.7346 13.2248C82.7346 12.3053 82.9211 11.502 83.2941 10.815C83.6776 10.128 84.2105 9.59952 84.8925 9.22959C85.5745 8.85965 86.3578 8.67468 87.2424 8.67468C88.1056 8.67468 88.8728 8.85437 89.5443 9.21375C90.2156 9.5731 90.7377 10.0857 91.1107 10.7516C91.4945 11.4175 91.6863 12.1943 91.6863 13.0822ZM88.8889 12.3687C88.8889 11.9037 88.729 11.5337 88.4093 11.2589C88.0895 10.9841 87.6899 10.8467 87.2105 10.8467C86.7523 10.8467 86.3632 10.9789 86.0434 11.2431C85.7344 11.5073 85.5425 11.8825 85.4681 12.3687H88.8889Z" fill="#04111D"/>
<path d="M92.5847 13.209C92.5847 12.3 92.7553 11.502 93.0964 10.815C93.4479 10.128 93.9222 9.59952 94.519 9.22959C95.1158 8.85965 95.7817 8.67468 96.5172 8.67468C97.1458 8.67468 97.6948 8.80152 98.1637 9.0552C98.6431 9.30886 99.0107 9.64181 99.2665 10.054V8.80152H102V17.6482H99.2665V16.3957C99.0002 16.8079 98.6272 17.1409 98.1476 17.3945C97.6787 17.6482 97.1299 17.775 96.5011 17.775C95.7764 17.775 95.1158 17.5901 94.519 17.2201C93.9222 16.8396 93.4479 16.3059 93.0964 15.6188C92.7553 14.9213 92.5847 14.118 92.5847 13.209ZM99.2665 13.2248C99.2665 12.5484 99.0747 12.0146 98.6912 11.6236C98.3182 11.2325 97.8598 11.037 97.3164 11.037C96.7728 11.037 96.3092 11.2325 95.9257 11.6236C95.5528 12.0041 95.3663 12.5326 95.3663 13.209C95.3663 13.8854 95.5528 14.4245 95.9257 14.8261C96.3092 15.2172 96.7728 15.4127 97.3164 15.4127C97.8598 15.4127 98.3182 15.2172 98.6912 14.8261C99.0747 14.4351 99.2665 13.9013 99.2665 13.2248Z" fill="#04111D"/>
</svg>
